<svg width="37" height="37" viewBox="0 0 37 37" fill="none" xmlns="http://www.w3.org/2000/svg">
<path fill-rule="evenodd" clip-rule="evenodd" d="M18.5 2.43421C9.62711 2.43421 2.43421 9.62711 2.43421 18.5C2.43421 27.3729 9.62711 34.5658 18.5 34.5658C27.3729 34.5658 34.5658 27.3729 34.5658 18.5C34.5658 9.62711 27.3729 2.43421 18.5 2.43421ZM0 18.5C0 8.28273 8.28273 0 18.5 0C28.7173 0 37 8.28273 37 18.5C37 28.7173 28.7173 37 18.5 37C8.28273 37 0 28.7173 0 18.5Z" fill="#387928"/>
<path d="M14 14.8182C14 13.814 13.1046 13 12 13C10.8954 13 10 13.814 10 14.8182V16.1818C10 17.186 10.8954 18 12 18C13.1046 18 14 17.186 14 16.1818V14.8182Z" fill="#387928"/>
<path d="M28 14.8182C28 13.814 27.1046 13 26 13C24.8954 13 24 13.814 24 14.8182V16.1818C24 17.186 24.8954 18 26 18C27.1046 18 28 17.186 28 16.1818V14.8182Z" fill="#387928"/>
<path fill-rule="evenodd" clip-rule="evenodd" d="M18.5 26.5C20.63 26.5 23.3801 24.7918 24.8299 23.3661C25.3264 22.878 26.1312 22.878 26.6277 23.3661C27.1241 23.8543 27.1241 24.6457 26.6277 25.1339C24.6877 27.0415 21.2852 29 18.5 29C15.7148 29 12.3123 27.0415 10.3723 25.1339C9.87589 24.6457 9.87589 23.8543 10.3723 23.3661C10.8688 22.878 11.6736 22.878 12.1701 23.3661C13.6199 24.7918 16.37 26.5 18.5 26.5Z" fill="#387928"/>
</svg>
