<svg width="37" height="37" viewBox="0 0 37 37" fill="none" xmlns="http://www.w3.org/2000/svg">
<path fill-rule="evenodd" clip-rule="evenodd" d="M18.5 2.43421C9.62711 2.43421 2.43421 9.62711 2.43421 18.5C2.43421 27.3729 9.62711 34.5658 18.5 34.5658C27.3729 34.5658 34.5658 27.3729 34.5658 18.5C34.5658 9.62711 27.3729 2.43421 18.5 2.43421ZM0 18.5C0 8.28273 8.28273 0 18.5 0C28.7173 0 37 8.28273 37 18.5C37 28.7173 28.7173 37 18.5 37C8.28273 37 0 28.7173 0 18.5Z" fill="#792715"/>
<path d="M14 14.8182C14 13.814 13.1046 13 12 13C10.8954 13 10 13.814 10 14.8182V16.1818C10 17.186 10.8954 18 12 18C13.1046 18 14 17.186 14 16.1818V14.8182Z" fill="#792715"/>
<path d="M28 14.8182C28 13.814 27.1046 13 26 13C24.8954 13 24 13.814 24 14.8182V16.1818C24 17.186 24.8954 18 26 18C27.1046 18 28 17.186 28 16.1818V14.8182Z" fill="#792715"/>
<path fill-rule="evenodd" clip-rule="evenodd" d="M18.5 24.5C22.5 24.5 24.3801 27.2082 25.8299 28.6339C26.3264 29.122 27.1312 29.122 27.6277 28.6339C28.1241 28.1457 28.1241 27.3543 27.6277 26.8661C25.6877 24.9585 23.5 22 18.5 22C14 22 11.3123 24.9585 9.37232 26.8661C8.87589 27.3543 8.87589 28.1457 9.37232 28.6339C9.86875 29.122 10.6736 29.122 11.1701 28.6339C12.6199 27.2082 15 24.5 18.5 24.5Z" fill="#792715"/>
</svg>
