<svg width="37" height="37" viewBox="0 0 37 37" fill="none" xmlns="http://www.w3.org/2000/svg">
<path fill-rule="evenodd" clip-rule="evenodd" d="M18.5 2.43421C9.62711 2.43421 2.43421 9.62711 2.43421 18.5C2.43421 27.3729 9.62711 34.5658 18.5 34.5658C27.3729 34.5658 34.5658 27.3729 34.5658 18.5C34.5658 9.62711 27.3729 2.43421 18.5 2.43421ZM0 18.5C0 8.28273 8.28273 0 18.5 0C28.7173 0 37 8.28273 37 18.5C37 28.7173 28.7173 37 18.5 37C8.28273 37 0 28.7173 0 18.5Z" fill="#92532F"/>
<path d="M14 14.8182C14 13.814 13.1046 13 12 13C10.8954 13 10 13.814 10 14.8182V16.1818C10 17.186 10.8954 18 12 18C13.1046 18 14 17.186 14 16.1818V14.8182Z" fill="#92532F"/>
<path d="M28 14.8182C28 13.814 27.1046 13 26 13C24.8954 13 24 13.814 24 14.8182V16.1818C24 17.186 24.8954 18 26 18C27.1046 18 28 17.186 28 16.1818V14.8182Z" fill="#92532F"/>
<path fill-rule="evenodd" clip-rule="evenodd" d="M18.5 25.5C20.63 25.5 22.3801 26.2082 23.8299 27.6339C24.3264 28.122 25.1312 28.122 25.6277 27.6339C26.1241 27.1457 26.1241 26.3543 25.6277 25.8661C23.6877 23.9585 21.2852 23 18.5 23C15.7148 23 13.3123 23.9585 11.3723 25.8661C10.8759 26.3543 10.8759 27.1457 11.3723 27.6339C11.8688 28.122 12.6736 28.122 13.1701 27.6339C14.6199 26.2082 16.37 25.5 18.5 25.5Z" fill="#92532F"/>
</svg>
