<svg width="30" height="30" viewBox="0 0 30 30" fill="none" xmlns="http://www.w3.org/2000/svg">
<path d="M29.25 12.175V4.2C29.25 2.29693 27.7031 0.75 25.8 0.75H17.825C17.4119 0.75 17.075 1.08693 17.075 1.5C17.075 1.91307 17.4119 2.25 17.825 2.25H25.8C26.8769 2.25 27.75 3.12307 27.75 4.2V12.175C27.75 12.5881 28.0869 12.925 28.5 12.925C28.9131 12.925 29.25 12.5881 29.25 12.175ZM12.175 0.75H4.2C2.29693 0.75 0.75 2.29693 0.75 4.2V12.175C0.75 12.5881 1.08693 12.925 1.5 12.925C1.91307 12.925 2.25 12.5881 2.25 12.175V4.2C2.25 3.12307 3.12307 2.25 4.2 2.25H12.175C12.5881 2.25 12.925 1.91307 12.925 1.5C12.925 1.08693 12.5881 0.75 12.175 0.75ZM28.5 17.075C28.0869 17.075 27.75 17.4119 27.75 17.825V25.8C27.75 26.8769 26.8769 27.75 25.8 27.75H17.825C17.4119 27.75 17.075 28.0869 17.075 28.5C17.075 28.9131 17.4119 29.25 17.825 29.25H25.8C27.7031 29.25 29.25 27.7031 29.25 25.8V17.825C29.25 17.4119 28.9131 17.075 28.5 17.075ZM12.175 27.75H4.2C3.12307 27.75 2.25 26.8769 2.25 25.8V17.825C2.25 17.4119 1.91307 17.075 1.5 17.075C1.08693 17.075 0.75 17.4119 0.75 17.825V25.8C0.75 27.7031 2.29693 29.25 4.2 29.25H12.175C12.5881 29.25 12.925 28.9131 12.925 28.5C12.925 28.0869 12.5881 27.75 12.175 27.75Z" fill="#132A59" stroke="#132A59" stroke-width="0.5"/>
</svg>
